<svg   xmlns="http://www.w3.org/2000/svg" 
  version="1.1" width="600" height="210">
  <!-- <circle cx="50" cy="50" r="40" stroke="green" stroke-width="4" fill="yellow" /> -->
  <!-- <rect x="50" y="20" rx="20" ry="20" width="150" height="150"
  style="fill:red;stroke:black;stroke-width:5;opacity:0.5" /> -->
  <!-- <line x1="0" y1="0" x2="200" y2="200" style="stroke:rgb(255,0,0);stroke-width:2" /> -->
  <!-- <polyline points="20,20 40,25 60,40 80,120 120,140 200,180"
  style="fill:none;stroke:black;stroke-width:3" /> -->

  <path d="M100 200 L300 0 H340 V200 H300 V125 H225 L150 200" 
  style="fill:#333333;stroke:grey;stroke-width:6" />
  <path d="M150 0 L75 200 H225 C0 0 20 20 150 0" 
  style="fill:#5DADE2;stroke:#333333;stroke-width:6" />
  <path d="M300 0 A2 5 0 1 1 320 200 h120 c0 -50 0 -100 -60 -40 c0 -60 20 -100 -60 -160 " 
  style="fill:#5DADE2;stroke:#333333;stroke-width:6" />

  <circle cx="100" cy="40" r="20" style="fill:white"/>
  <circle cx="90" cy="40" r="10" style="fill:#333333"/>
  <path d="M110 130 l10 45 l15 -50"
    fill="none" stroke="#333333" stroke-width="6" />
<!-- <rect x="270" y="60" rx="5" ry="5" width="50" height="30"
  style="fill:#5DADE2;stroke:grey;stroke-width:5" /> -->

  <path d="M260 50 a1 1 0 0 0 5 -5 h60 a1 1 0 0 0 5 5 v30 a1 1 0 0 0 -5 5 h-20 a1.5 1 0 0 0 -20 0 h-20 a1 1 0 0 0 -5 -5 Z"
      fill="#5DADE2" stroke="grey" stroke-width="3"/>

  <text x="280"  y="72" font-size="30" font-weight="bold" fill="white">VR</text>

  <!-- <path d="M260 50 a1 1 0 0 0 5 -5 h60 a1 1 0 0 0 5 5 v30 a1 1 0 0 0 -5 5 h-60 a1 1 0 0 0 -5 -5 Z" /> -->

  <!-- <polyline points="0 0 100,200 600,200 600,150 450,150 450,0 400,0 400,150" 
  rx="5" ry="5"
  style="fill:none;stroke:grey;stroke-width:5" /> -->
</svg>